<svg width="1332" height="299" viewBox="0 0 1332 299" fill="none" xmlns="http://www.w3.org/2000/svg">
<path d="M326.324 134.545V232.727H263.597V58.1818H323.142V91.3636H324.96C328.748 80.303 335.415 71.6288 344.96 65.3409C354.581 59.053 365.794 55.9091 378.597 55.9091C390.945 55.9091 401.665 58.75 410.756 64.4318C419.922 70.0379 427.006 77.7652 432.006 87.6136C437.081 97.4621 439.581 108.712 439.506 121.364V232.727H376.778V134.545C376.854 125.909 374.657 119.129 370.187 114.205C365.794 109.28 359.657 106.818 351.778 106.818C346.627 106.818 342.119 107.955 338.256 110.227C334.468 112.424 331.551 115.606 329.506 119.773C327.46 123.864 326.4 128.788 326.324 134.545Z" fill="#EEEEEE"/>
<path d="M519.108 235.455C507.972 235.455 498.123 233.636 489.562 230C481.078 226.288 474.411 220.682 469.562 213.182C464.714 205.682 462.29 196.136 462.29 184.545C462.29 175 463.919 166.856 467.176 160.114C470.434 153.295 474.979 147.727 480.812 143.409C486.646 139.091 493.426 135.795 501.153 133.523C508.956 131.25 517.366 129.773 526.381 129.091C536.153 128.333 543.994 127.424 549.903 126.364C555.888 125.227 560.206 123.674 562.858 121.705C565.509 119.659 566.835 116.97 566.835 113.636V113.182C566.835 108.636 565.093 105.152 561.608 102.727C558.123 100.303 553.653 99.0909 548.199 99.0909C542.214 99.0909 537.328 100.417 533.54 103.068C529.828 105.644 527.593 109.621 526.835 115H469.108C469.866 104.394 473.237 94.6212 479.222 85.6818C485.282 76.6667 494.108 69.4697 505.699 64.0909C517.29 58.6364 531.759 55.9091 549.108 55.9091C561.608 55.9091 572.82 57.3864 582.744 60.3409C592.669 63.2197 601.116 67.2727 608.085 72.5C615.055 77.6515 620.358 83.7121 623.994 90.6818C627.706 97.5758 629.562 105.076 629.562 113.182V232.727H570.926V208.182H569.562C566.078 214.697 561.835 219.962 556.835 223.977C551.911 227.992 546.267 230.909 539.903 232.727C533.615 234.545 526.684 235.455 519.108 235.455ZM539.562 195.909C544.335 195.909 548.805 194.924 552.972 192.955C557.214 190.985 560.661 188.144 563.312 184.432C565.964 180.72 567.29 176.212 567.29 170.909V156.364C565.623 157.045 563.843 157.689 561.949 158.295C560.131 158.902 558.161 159.47 556.04 160C553.994 160.53 551.797 161.023 549.449 161.477C547.176 161.932 544.79 162.348 542.29 162.727C537.441 163.485 533.464 164.735 530.358 166.477C527.328 168.144 525.055 170.227 523.54 172.727C522.1 175.152 521.381 177.879 521.381 180.909C521.381 185.758 523.085 189.47 526.494 192.045C529.903 194.621 534.259 195.909 539.562 195.909Z" fill="#EEEEEE"/>
<path d="M772.261 298.182V204.091H771.352C768.928 210 765.443 215.303 760.898 220C756.428 224.621 750.973 228.295 744.534 231.023C738.17 233.674 730.898 235 722.716 235C710.292 235 698.852 231.742 688.398 225.227C678.019 218.712 669.686 208.826 663.398 195.568C657.186 182.311 654.08 165.606 654.08 145.455C654.08 124.394 657.337 107.273 663.852 94.0909C670.443 80.9091 678.928 71.25 689.307 65.1136C699.761 58.9773 710.746 55.9091 722.261 55.9091C730.898 55.9091 738.474 57.4242 744.989 60.4545C751.504 63.4091 756.958 67.3864 761.352 72.3864C765.746 77.3106 769.08 82.7273 771.352 88.6364H772.716V58.1818H834.989V298.182H772.261ZM745.898 186.818C751.655 186.818 756.579 185.152 760.67 181.818C764.837 178.409 768.019 173.636 770.216 167.5C772.489 161.288 773.625 153.939 773.625 145.455C773.625 136.818 772.489 129.432 770.216 123.295C768.019 117.083 764.837 112.348 760.67 109.091C756.579 105.758 751.655 104.091 745.898 104.091C740.14 104.091 735.216 105.758 731.125 109.091C727.11 112.348 724.004 117.083 721.807 123.295C719.686 129.432 718.625 136.818 718.625 145.455C718.625 154.091 719.686 161.515 721.807 167.727C724.004 173.864 727.11 178.598 731.125 181.932C735.216 185.189 740.14 186.818 745.898 186.818Z" fill="#EEEEEE"/>
<path d="M979.903 156.364V58.1818H1042.63V232.727H983.085V199.545H981.267C977.479 210.682 970.85 219.394 961.381 225.682C951.911 231.894 940.661 235 927.631 235C915.434 235 904.752 232.197 895.585 226.591C886.494 220.985 879.411 213.258 874.335 203.409C869.335 193.561 866.797 182.273 866.722 169.545V58.1818H929.449V156.364C929.525 165 931.722 171.78 936.04 176.705C940.434 181.629 946.57 184.091 954.449 184.091C959.676 184.091 964.184 182.992 967.972 180.795C971.835 178.523 974.79 175.341 976.835 171.25C978.956 167.083 979.979 162.121 979.903 156.364Z" fill="#EEEEEE"/>
<path d="M1331.95 0V232.727H1269.22V0H1331.95Z" fill="#EEEEEE"/>
<path fill-rule="evenodd" clip-rule="evenodd" d="M1158.17 235.909C1139.53 235.909 1123.47 232.348 1109.99 225.227C1096.58 218.03 1086.24 207.727 1078.97 194.318C1073.64 184.333 1070.28 172.893 1068.9 160H1129.99V162.727C1129.99 168.333 1131.16 173.333 1133.51 177.727C1135.86 182.121 1139.23 185.568 1143.62 188.068C1148.02 190.568 1153.32 191.818 1159.53 191.818C1163.85 191.818 1167.79 191.212 1171.35 190C1174.99 188.788 1178.09 187.045 1180.67 184.773C1183.25 182.424 1185.14 179.621 1186.35 176.364H1243.62C1241.66 188.485 1237 199.015 1229.65 207.955C1222.3 216.818 1212.56 223.712 1200.44 228.636C1188.4 233.485 1174.31 235.909 1158.17 235.909ZM1129.99 125.455H1185.9C1185.82 120.455 1184.53 116.061 1182.03 112.273C1179.61 108.409 1176.31 105.417 1172.15 103.295C1168.06 101.098 1163.4 100 1158.17 100C1153.09 100 1148.44 101.098 1144.19 103.295C1139.95 105.417 1136.54 108.371 1133.97 112.159C1131.47 115.947 1130.14 120.379 1129.99 125.455ZM1069.9 125.455C1071.64 115.692 1074.7 106.752 1079.08 98.6364C1086.35 85.1515 1096.62 74.6591 1109.88 67.1591C1123.13 59.6591 1138.78 55.9091 1156.81 55.9091C1169.99 55.9091 1181.92 57.9546 1192.6 62.0455C1203.28 66.1364 1212.41 72.0833 1219.99 79.8864C1227.56 87.6136 1233.4 97.0076 1237.49 108.068C1241.58 119.129 1243.62 131.591 1243.62 145.455V160H1129.99V125.455H1069.9Z" fill="#EEEEEE"/>
<path fill-rule="evenodd" clip-rule="evenodd" d="M68.1818 232.727H0L76.8182 0H163.182L240 232.727H171.818L158.37 188.182H225.297L209.693 140.909H144.099L120.909 64.0909H119.091L95.9005 140.909H30.3072L14.7035 188.182H81.6295L68.1818 232.727ZM81.6295 188.182L95.9005 140.909H144.099L158.37 188.182H81.6295Z" fill="#EEEEEE"/>
</svg>
